PathFileType	3	(X/Y/Z)	running_2__fused_aligned.trc
DataRate	CameraRate	NumFrames	NumMarkers	Units	OrigDataRate	OrigDataStartFrame	OrigNumFrames
100.0	100.0	9	19	mm	100.0	4233	6395
Frame#	Time	pelvis			neck			head			hip_left			hip_right			knee_left			knee_right			ankle_left			ankle_right			heel_left			heel_right			toe_left			toe_right			shoulder_left			shoulder_right			elbow_left			elbow_right			wrist_left			wrist_right			
		X1	Y1	Z1	X2	Y2	Z2	X3	Y3	Z3	X4	Y4	Z4	X5	Y5	Z5	X6	Y6	Z6	X7	Y7	Z7	X8	Y8	Z8	X9	Y9	Z9	X10	Y10	Z10	X11	Y11	Z11	X12	Y12	Z12	X13	Y13	Z13	X14	Y14	Z14	X15	Y15	Z15	X16	Y16	Z16	X17	Y17	Z17	X18	Y18	Z18	X19	Y19	Z19	
4233	42.32000	50.531715	942.619620	216.475145	18.652631	1485.238294	357.047458	14.350893	1562.495137	508.072001	126.385457	943.777448	211.554056	-25.321895	941.461820	221.396146	153.470111	515.470653	205.455822	-33.803657	536.141818	393.824001	126.197795	244.254632	-93.479242	-51.732115	171.548031	282.435883	115.943455	234.995077	-147.453334	-54.828037	130.521172	244.796184	132.704299	74.347411	-24.545498	-42.102559	102.460367	445.702094	191.236991	1472.208127	323.494478	-145.153934	1438.931540	291.551174	326.108469	1248.619668	222.514661	-238.585897	1221.020594	145.111184	242.015032	1110.758684	395.847791	-192.779357	1072.499587	336.212818
4234	42.33000	49.440591	943.743727	217.478292	17.195614	1486.141978	357.728631	13.208464	1563.241482	508.846310	125.366374	944.828121	212.772191	-26.485080	942.659365	222.184284	153.401367	516.702686	207.377217	-34.169174	537.090621	392.940878	126.586838	247.633679	-94.917030	-50.024504	167.093672	287.070270	116.352833	239.050146	-149.209397	-53.011302	124.491751	249.698987	132.927091	75.704738	-27.946903	-40.341260	100.938578	455.415357	189.515108	1473.491087	323.978659	-146.731642	1439.567650	292.452126	324.028454	1250.386669	222.493955	-239.187224	1220.738706	147.602205	240.129183	1113.401887	395.965442	-192.422156	1074.519085	338.839998
4235	42.34000	48.349467	944.867834	218.481439	15.738597	1487.045661	358.409804	12.066035	1563.987826	509.620618	124.347292	945.878793	213.990325	-27.648265	943.856910	222.972422	153.332623	517.934719	209.298612	-34.534690	538.039424	392.057756	126.975881	251.012725	-96.354818	-48.316892	162.639313	291.704657	116.762212	243.105216	-150.965460	-51.194567	118.462329	254.601790	133.149883	77.062066	-31.348307	-38.579961	99.416789	465.128619	187.793226	1474.774048	324.462840	-148.309350	1440.203759	293.353078	321.948439	1252.153669	222.473249	-239.788552	1220.456817	150.093227	238.243334	1116.045091	396.083093	-192.064954	1076.538583	341.467179
4236	42.35000	47.258343	945.991941	219.484586	14.281581	1487.949344	359.090978	10.923607	1564.734171	510.394927	123.328209	946.929466	215.208460	-28.811450	945.054455	223.760560	153.263879	519.166752	211.220007	-34.900207	538.988226	391.174633	127.364924	254.391772	-97.792607	-46.609280	158.184953	296.339044	117.171590	247.160285	-152.721523	-49.377832	112.432908	259.504593	133.372675	78.419393	-34.749712	-36.818661	97.895001	474.841882	186.071343	1476.057009	324.947021	-149.887058	1440.839869	294.254030	319.868424	1253.920669	222.452543	-240.389879	1220.174928	152.584248	236.357485	1118.688294	396.200744	-191.707752	1078.558081	344.094360
4237	42.36000	46.167219	947.116048	220.487733	12.824564	1488.853028	359.772151	9.781178	1565.480515	511.169236	122.309126	947.980139	216.426595	-29.974634	946.252000	224.548698	153.195135	520.398784	213.141402	-35.265724	539.937029	390.291510	127.753968	257.770818	-99.230395	-44.901668	153.730594	300.973430	117.580969	251.215355	-154.477586	-47.561098	106.403486	264.407397	133.595467	79.776720	-38.151117	-35.057362	96.373212	484.555145	184.349461	1477.339970	325.431202	-151.464766	1441.475978	295.154981	317.788409	1255.687669	222.431837	-240.991206	1219.893040	155.075269	234.471636	1121.331498	396.318395	-191.350550	1080.577579	346.721540
4238	42.37000	45.902621	948.767536	221.913700	12.774403	1490.385015	360.969507	10.277284	1567.140692	512.291977	122.037771	949.601116	217.917924	-30.232480	947.933997	225.909321	153.298895	522.414909	218.061888	-35.966543	540.656601	385.618283	128.605717	258.490795	-89.631209	-44.374292	152.018910	296.547208	118.592041	251.589728	-144.489190	-46.780725	104.463314	259.863093	133.861324	81.617021	-27.906337	-34.707683	94.258067	480.533770	183.421696	1479.198810	325.319336	-151.475700	1442.855427	297.646682	314.736955	1258.846725	219.316439	-240.998071	1220.476733	159.604949	233.714219	1125.255362	393.850272	-188.368548	1084.429814	350.997529
4239	42.38000	45.638023	950.419025	223.339668	12.724242	1491.917002	362.166863	10.773390	1568.800870	513.414719	121.766415	951.222093	219.409253	-30.490327	949.615993	227.269943	153.402655	524.431033	222.982374	-36.667362	541.376173	380.945055	129.457467	259.210772	-80.032022	-43.846916	150.307226	292.120985	119.603114	251.964102	-134.500795	-46.000353	102.523142	255.318789	134.127181	83.457322	-17.661557	-34.358004	92.142921	476.512396	182.493931	1481.057650	325.207470	-151.486633	1444.234876	300.138382	311.685501	1262.005782	216.201042	-241.004936	1221.060427	164.134630	232.956801	1129.179227	391.382149	-185.386546	1088.282050	355.273518
4240	42.39000	45.373426	952.070514	224.765635	12.674081	1493.448989	363.364220	11.269496	1570.461047	514.537461	121.495060	952.843071	220.900582	-30.748173	951.297989	228.630565	153.506414	526.447157	227.902860	-37.368182	542.095746	376.271827	130.309217	259.930750	-70.432836	-43.319539	148.595543	287.694762	120.614187	252.338475	-124.512399	-45.219980	100.582970	250.774485	134.393038	85.297622	-7.416777	-34.008325	90.027776	472.491022	181.566165	1482.916489	325.095604	-151.497567	1445.614325	302.630082	308.634047	1265.164839	213.085645	-241.011801	1221.644121	168.664310	232.199384	1133.103091	388.914026	-182.404544	1092.134286	359.549507
4241	42.40000	45.108828	953.722003	226.191603	12.623920	1494.980976	364.561576	11.765602	1572.121224	515.660202	121.223705	954.464048	222.391911	-31.006019	952.979985	229.991187	153.610174	528.463282	232.823347	-38.069001	542.815318	371.598599	131.160967	260.650727	-60.833650	-42.792163	146.883859	283.268540	121.625259	252.712849	-114.524003	-44.439608	98.642797	246.230181	134.658895	87.137923	2.828003	-33.658646	87.912631	468.469647	180.638400	1484.775329	324.983738	-151.508501	1446.993774	305.121783	305.582593	1268.323895	209.970248	-241.018666	1222.227814	173.193990	231.441967	1137.026956	386.445903	-179.422542	1095.986522	363.825496
